# xmcd
#
# Track frame offsets: 
#        150
#        12981
#        25582
#        40348
#        54398
#        63515
#        76579
#        87129
#        102763
#        119349
#        132783
#        145327
#        156126
#        167007
#        178318
#        188924
#        199309
#        211342
#
# Disc length: 3011 seconds
#
# Revision: 1
# Processed by: cddbd v1.5.2PL0 Copyright (c) Steve Scherf et al.
# Submitted via: ExactAudioCopy v1.0b4
#
DISCID=ef0bc112
DTITLE=Various - Desperado CD1
DYEAR=1900
DGENRE=Country
TTITLE0=Lynn Anderson - Rose Garden
TTITLE1=Johnny Cash - Folsom Prison Blues
TTITLE2=The Kingston Trio - Tom Dooley
TTITLE3=Billie Jo Spears - Which Way You goin Billy
TTITLE4=Frankie Laine - Rawhide
TTITLE5=Kenny Rogers - Ruby
TTITLE6=Jimmy Rodgers - Kisses sweeter than Wine
TTITLE7=Skeeter Davis - Desperado
TTITLE8=Willie Nelson - Pretty Paper
TTITLE9=Patti Page - Tennessee Waltz
TTITLE10=Faron Young - It's Four in the Morning
TTITLE11=Carl Belew - Am I that easy to forget?
TTITLE12=Sammi Smith - Help me make it through the Night
TTITLE13=Dolly Parton - Makin' Believe
TTITLE14=Freddy Fender - A Man can Cry
TTITLE15=Buck Owens - Excuse me
TTITLE16=Waylon Jennings - Don't think twice, it's alright
TTITLE17=Glen Campbell - Rhinestone Cowboy
EXTD=
EXTT0=
EXTT1=
EXTT2=
EXTT3=
EXTT4=
EXTT5=
EXTT6=
EXTT7=
EXTT8=
EXTT9=
EXTT10=
EXTT11=
EXTT12=
EXTT13=
EXTT14=
EXTT15=
EXTT16=
EXTT17=
PLAYORDER=
